<svg xmlns="http://www.w3.org/2000/svg" viewBox="0 0 365.37 53.83"><defs><style>.cls-1{stroke:#000;stroke-miterlimit:10;stroke-width:4px;}</style></defs><g id="Layer_2" data-name="Layer 2"><g id="Layer_1-2" data-name="Layer 1"><path class="cls-1" d="M2,51.83V2h9V51.83Z"/><path class="cls-1" d="M86.46,2h8.93V51.83H86.6L27.92,12.58V51.83H19V2h8.79L86.46,41.32Z"/><path class="cls-1" d="M171.92,2V9.92H112.09V25h55.37v7.78H112.09V51.83h-8.72V2Z"/><path class="cls-1" d="M176.24,51.83V2h9V51.83Z"/><path class="cls-1" d="M260.7,2h8.93V51.83h-8.79L202.16,12.58V51.83h-8.93V2H202L260.7,41.32Z"/><path class="cls-1" d="M277.61,51.83V2h9V51.83Z"/><path class="cls-1" d="M363.37,2v8.14H331.54V51.83h-9V10.14H290.79V2Z"/></g></g></svg>